# xmcd CD database file
#
# Track frame offsets:
#	150
#	21900
#	43356
#	61786
#	80826
#	106883
#	131732
#	150559
#	172281
#	191781
#	212158
#	235029
#
# Disc length: 3430 seconds
#
# Revision: 0
# Processed by: cddbd v1.5.2PL0 Copyright (c) Steve Scherf et al.
# Submitted via: CDex 1.70beta2
#
DISCID=ac0d640c
DTITLE=Ottmar Liebert - Bare Wood 2002-2012
DYEAR=2014
DGENRE=New Age
TTITLE0=Sand
TTITLE1=La Luna
TTITLE2=Moonlight
TTITLE3=Alhambra Jackson
TTITLE4=Firelight
TTITLE5=Carrousel
TTITLE6=Shadow
TTITLE7=Up close
TTITLE8=Underworld
TTITLE9=Remba
TTITLE10=Fireopal
TTITLE11=Westcoast
EXTD=YEAR: 2014
EXTT0=
EXTT1=
EXTT2=
EXTT3=
EXTT4=
EXTT5=
EXTT6=
EXTT7=
EXTT8=
EXTT9=
EXTT10=
EXTT11=
PLAYORDER=
